<svg xmlns="http://www.w3.org/2000/svg" viewBox="0 0 64 64" width="64" height="64">
  <defs>
    <linearGradient id="gradBg" x1="0" y1="0" x2="1" y2="1">
      <stop offset="0%" stop-color="#2563eb"/>
      <stop offset="55%" stop-color="#4338ca"/>
      <stop offset="100%" stop-color="#6d28d9"/>
    </linearGradient>
    <linearGradient id="gradCar" x1="0" y1="0" x2="0" y2="1">
      <stop offset="0%" stop-color="#ffffff"/>
      <stop offset="100%" stop-color="#e0e7ff"/>
    </linearGradient>
  </defs>
  <rect x="0" y="0" width="64" height="64" rx="14" fill="url(#gradBg)"/>
  <ellipse cx="32" cy="52" rx="22" ry="2.5" fill="rgba(255,255,255,.18)"/>
  <path d="M10 40 L10 46 Q10 49 13 49 L51 49 Q54 49 54 46 L54 40 Z" fill="url(#gradCar)"/>
  <path d="M20 40 L24 30 Q25.5 27 28 27 L36 27 Q38.5 27 40 30 L44 40 Z" fill="url(#gradCar)"/>
  <path d="M21 39 L24.5 31 Q25.5 29 27 29 L31 29 L31 39 Z" fill="rgba(37,99,235,.45)"/>
  <path d="M33 29 L36.5 29 Q38 29 39 31 L42.5 39 L33 39 Z" fill="rgba(37,99,235,.45)"/>
  <rect x="50" y="41" width="4" height="3" rx="1" fill="#fbbf24"/>
  <rect x="10" y="41" width="3.5" height="3" rx="1" fill="#ef4444"/>
  <rect x="27" y="43" width="4" height="1.2" rx=".6" fill="rgba(37,99,235,.5)"/>
  <rect x="33" y="43" width="4" height="1.2" rx=".6" fill="rgba(37,99,235,.5)"/>
  <g transform="translate(38,6) rotate(35)">
    <path d="M0 6 A6 6 0 1 1 6 12 L6 15 Q6 16 7 16 L16 16 Q17 16 17 17 L17 21 Q17 22 16 22 L7 22 Q6 22 6 23 L6 26 A6 6 0 1 1 0 20 Z"
          fill="#fbbf24" stroke="#b45309" stroke-width=".6" opacity=".95"/>
  </g>
  <circle cx="19" cy="49" r="5" fill="#0f172a"/>
  <circle cx="19" cy="49" r="2.2" fill="#64748b"/>
  <circle cx="45" cy="49" r="5" fill="#0f172a"/>
  <circle cx="45" cy="49" r="2.2" fill="#64748b"/>
</svg>
